<?xml version="1.0" standalone="no"?><!DOCTYPE svg PUBLIC "-//W3C//DTD SVG 1.1//EN" "http://www.w3.org/Graphics/SVG/1.1/DTD/svg11.dtd"><svg t="1552801176709" class="icon" style="" viewBox="0 0 1024 1024" version="1.1" xmlns="http://www.w3.org/2000/svg" p-id="4695" xmlns:xlink="http://www.w3.org/1999/xlink" width="200" height="200"><defs><style type="text/css"></style></defs><path d="M888.9 397.6c-5.6 0-11.3-1.5-16.4-4.6L511.2 176.3 149.9 393.1c-15.2 9.1-34.8 4.2-43.9-11s-4.2-34.8 11-43.9l394.2-236.5 394.2 236.5c15.2 9.1 20.1 28.7 11 43.9-6 10-16.6 15.5-27.5 15.5z" fill="#1296db" p-id="4696"></path><path d="M763 926.5H259.4c-45.4 0-82.4-36.9-82.4-82.4V340.5c0-17.7 14.3-32 32-32s32 14.3 32 32v503.7c0 10.1 8.2 18.4 18.4 18.4H763c10.1 0 18.4-8.2 18.4-18.4V340.5c0-17.7 14.3-32 32-32s32 14.3 32 32v503.7c0 45.3-37 82.3-82.4 82.3z" fill="#1296db" p-id="4697"></path><path d="M618.7 926.5H403.6V667.8c0-31.5 25.7-57.2 57.2-57.2h100.7c31.5 0 57.2 25.7 57.2 57.2v258.7z m-151.1-64h87.1V674.7h-87.1v187.8zM511.2 473.2c-59.3 0-107.5-48.2-107.5-107.5s48.2-107.5 107.5-107.5 107.5 48.2 107.5 107.5-48.2 107.5-107.5 107.5z m0-151.1c-24 0-43.5 19.5-43.5 43.5s19.5 43.5 43.5 43.5 43.5-19.5 43.5-43.5-19.5-43.5-43.5-43.5z" fill="#1296db" p-id="4698"></path></svg>