<?xml version="1.0" standalone="no"?><!DOCTYPE svg PUBLIC "-//W3C//DTD SVG 1.1//EN" "http://www.w3.org/Graphics/SVG/1.1/DTD/svg11.dtd"><svg t="1552706880198" class="icon" style="" viewBox="0 0 1024 1024" version="1.1" xmlns="http://www.w3.org/2000/svg" p-id="18907" xmlns:xlink="http://www.w3.org/1999/xlink" width="200" height="200"><defs><style type="text/css"></style></defs><path d="M822.578 958.645H272.153V201.813h240.809v313.912l121.816-92.52 118.996 92.52V201.813H891.38v688.029c0 37.961-30.841 68.801-68.802 68.801v0.002z m-187.8-580.523l-87.413 68.803V167.412h172.006v279.512l-84.593-68.802zM168.951 133.011v34.401c0 19.016 15.385 34.403 34.4 34.403h34.403v756.832H203.35c-38.028 0-68.801-30.84-68.801-68.802V133.011c0-38.028 30.773-68.801 68.801-68.801h619.227c25.397 0 47.301 13.909 59.261 34.401H203.35c-19.015 0-34.399 15.386-34.399 34.4z" p-id="18908"></path></svg>