<?xml version="1.0" standalone="no"?><!DOCTYPE svg PUBLIC "-//W3C//DTD SVG 1.1//EN" "http://www.w3.org/Graphics/SVG/1.1/DTD/svg11.dtd"><svg t="1552802032903" class="icon" style="" viewBox="0 0 1024 1024" version="1.1" xmlns="http://www.w3.org/2000/svg" p-id="8167" xmlns:xlink="http://www.w3.org/1999/xlink" width="200" height="200"><defs><style type="text/css"></style></defs><path d="M574.6688 763.460267h-375.466667c-10.24 0-17.066667 6.826667-17.066666 17.066666s6.826667 17.066667 17.066666 17.066667h375.466667c10.24 0 17.066667-6.826667 17.066667-17.066667s-6.826667-17.066667-17.066667-17.066666zM574.6688 592.7936h-375.466667c-10.24 0-17.066667 6.826667-17.066666 17.066667s6.826667 17.066667 17.066666 17.066666h375.466667c10.24 0 17.066667-6.826667 17.066667-17.066666s-6.826667-17.066667-17.066667-17.066667z" p-id="8168" fill="#1296db"></path><path d="M984.2688 347.0336c-10.24 0-17.066667 6.826667-17.066667 17.066667v512c0 47.786667-40.96 88.746667-88.746666 88.746666-47.786667 0-88.746667-40.96-88.746667-88.746666v-740.693334c0-68.266667-54.613333-122.88-122.88-122.88h-532.48c-68.266667 0-122.88 54.613333-122.88 122.88v744.106667c0 68.266667 54.613333 122.88 122.88 122.88h744.106667c68.266667 0 122.88-54.613333 122.88-122.88v-512c0-10.24-6.826667-20.48-17.066667-20.48z m-849.92 621.226667c-47.786667 0-88.746667-40.96-88.746667-88.746667v-744.106667c0-47.786667 40.96-88.746667 88.746667-88.746666h529.066667c47.786667 0 88.746667 40.96 88.746666 88.746666v744.106667c0 34.133333 13.653333 64.853333 37.546667 88.746667h-655.36z" p-id="8169" fill="#1296db"></path><path d="M557.602133 183.1936h-307.2c-37.546667 0-68.266667 30.72-68.266666 68.266667v102.4c0 37.546667 30.72 68.266667 68.266666 68.266666h307.2c37.546667 0 68.266667-30.72 68.266667-68.266666v-102.4c0-37.546667-30.72-68.266667-68.266667-68.266667z m34.133334 170.666667c0 20.48-17.066667 34.133333-34.133334 34.133333h-307.2c-20.48 0-34.133333-17.066667-34.133333-34.133333v-102.4c0-20.48 17.066667-34.133333 34.133333-34.133334h307.2c20.48 0 34.133333 17.066667 34.133334 34.133334v102.4z" p-id="8170" fill="#1296db"></path></svg>